<svg width="28" height="29" viewBox="0 0 28 29" fill="none" xmlns="http://www.w3.org/2000/svg">
<path fill-rule="evenodd" clip-rule="evenodd" d="M26.0645 0.251953H1.81522C0.983835 0.251953 0.310547 0.94696 0.310547 1.80517V26.8367C0.310547 27.6949 0.983835 28.3899 1.81522 28.3899H14.8694V17.4935H11.3176V13.2475H14.8694V10.1143C14.8694 6.47888 17.0201 4.50078 20.1616 4.50078C21.6663 4.50078 22.9584 4.61615 23.3359 4.6682V8.46682H21.1579C19.4488 8.46682 19.119 9.30533 19.119 10.535V13.246H23.1928L22.6613 17.4921H19.1176V28.3899H26.0645C26.8959 28.3899 27.5692 27.6949 27.5692 26.8367V1.80517C27.5692 0.94696 26.8959 0.251953 26.0645 0.251953Z" fill="white"/>
</svg>
