<svg width="28" height="29" viewBox="0 0 28 29" fill="none" xmlns="http://www.w3.org/2000/svg">
<path d="M8.21555 0.251953H19.6642C24.0255 0.251953 27.5692 3.90988 27.5692 8.41195V20.2299C27.5692 22.3941 26.7363 24.4696 25.2538 25.9999C23.7714 27.5302 21.7607 28.3899 19.6642 28.3899H8.21555C3.85417 28.3899 0.310547 24.732 0.310547 20.2299V8.41195C0.310547 6.24779 1.14339 4.17226 2.62587 2.64196C4.10834 1.11167 6.11901 0.251953 8.21555 0.251953ZM7.94296 3.06575C6.64166 3.06575 5.39366 3.59936 4.4735 4.5492C3.55335 5.49904 3.03641 6.7873 3.03641 8.13057V20.5113C3.03641 23.311 5.23073 25.5761 7.94296 25.5761H19.9368C21.2381 25.5761 22.4861 25.0425 23.4062 24.0926C24.3264 23.1428 24.8433 21.8545 24.8433 20.5113V8.13057C24.8433 5.33085 22.649 3.06575 19.9368 3.06575H7.94296ZM21.0952 5.17609C21.5471 5.17609 21.9804 5.36137 22.2999 5.69118C22.6194 6.02098 22.7989 6.4683 22.7989 6.93471C22.7989 7.40113 22.6194 7.84844 22.2999 8.17824C21.9804 8.50805 21.5471 8.69333 21.0952 8.69333C20.6434 8.69333 20.2101 8.50805 19.8906 8.17824C19.5711 7.84844 19.3916 7.40113 19.3916 6.93471C19.3916 6.4683 19.5711 6.02098 19.8906 5.69118C20.2101 5.36137 20.6434 5.17609 21.0952 5.17609ZM13.9399 7.28644C15.7472 7.28644 17.4806 8.02757 18.7585 9.34679C20.0365 10.666 20.7545 12.4553 20.7545 14.3209C20.7545 16.1866 20.0365 17.9758 18.7585 19.295C17.4806 20.6143 15.7472 21.3554 13.9399 21.3554C12.1325 21.3554 10.3992 20.6143 9.12117 19.295C7.84317 17.9758 7.1252 16.1866 7.1252 14.3209C7.1252 12.4553 7.84317 10.666 9.12117 9.34679C10.3992 8.02757 12.1325 7.28644 13.9399 7.28644ZM13.9399 10.1002C12.8554 10.1002 11.8154 10.5449 11.0486 11.3364C10.2818 12.128 9.85106 13.2015 9.85106 14.3209C9.85106 15.4403 10.2818 16.5139 11.0486 17.3054C11.8154 18.0969 12.8554 18.5416 13.9399 18.5416C15.0243 18.5416 16.0643 18.0969 16.8311 17.3054C17.5979 16.5139 18.0287 15.4403 18.0287 14.3209C18.0287 13.2015 17.5979 12.128 16.8311 11.3364C16.0643 10.5449 15.0243 10.1002 13.9399 10.1002Z" fill="white"/>
</svg>
