<svg width="46" height="33" viewBox="0 0 46 33" fill="none" xmlns="http://www.w3.org/2000/svg">
<path d="M18.1473 22.9077L29.9204 16.0354L18.1473 9.16307V22.9077ZM44.3702 4.97096C44.6651 6.04762 44.8693 7.49081 45.0054 9.32342C45.1642 11.156 45.2322 12.7367 45.2322 14.1111L45.3684 16.0354C45.3684 21.0521 45.0054 24.7403 44.3702 27.0998C43.8031 29.1615 42.4875 30.4901 40.4459 31.0628C39.3797 31.3606 37.4289 31.5668 34.4346 31.7042C31.4856 31.8646 28.7862 31.9333 26.291 31.9333L22.6842 32.0707C13.1795 32.0707 7.25894 31.7042 4.92247 31.0628C2.88089 30.4901 1.56521 29.1615 0.998104 27.0998C0.70321 26.0231 0.499052 24.5799 0.362947 22.7473C0.204158 20.9147 0.136105 19.3341 0.136105 17.9596L0 16.0354C0 11.0186 0.362947 7.33045 0.998104 4.97096C1.56521 2.90927 2.88089 1.58063 4.92247 1.00794C5.98862 0.710138 7.93946 0.503968 10.9338 0.366522C13.8827 0.206169 16.5821 0.137446 19.0774 0.137446L22.6842 0C32.1888 0 38.1094 0.366523 40.4459 1.00794C42.4875 1.58063 43.8031 2.90927 44.3702 4.97096Z" fill="white"/>
</svg>
